<?xml version="1.0" encoding="UTF-8"?>
<svg id="Capa_2" data-name="Capa 2" xmlns="http://www.w3.org/2000/svg" viewBox="0 0 876.98 609.88">
  <g id="Capa_1-2" data-name="Capa 1">
    <g>
      <path d="M631.07,465.39c.4-.01.88-.14,1.46-.39-.45.09-.94.22-1.46.39Z"/>
      <path d="M340.35,175.01s.07.08.12.13c.01-.04.03-.09.05-.14-.06,0-.11,0-.17.01Z"/>
      <path d="M803.06,62.03c-5.03.56-10.82,2.91-14.88,6.12-1.07.84-11.25,10.63-11.69,11.32-1.59,2.56-1.34,5.73-2.56,8.43-6.25,13.86-42.57,47.34-55.93,57.07-5.25,3.83-13.56,8.71-13.55-1.48.01-11.62,7.37-27.24,12.36-37.7,2.51-5.25,12.06-20.28,12.66-24.36,1.39-9.51-13.37-13.43-17.44-5.45-6.48-12.26-24.31-11.85-35.74-6.72-36.08,16.19-39.07,57.96-67.29,79.71-9.32,7.18-11.06.72-10.15-8.17,1.44-14.28,10.27-30.53,11.7-43.27,1.5-13.36-9.19-24.59-22.85-20.86-4.69,1.28-17.67,9.33-21.17,12.83-1.23,1.24-11.02,15.53-13,13.49,2.48-6.44,4.25-16.58-2.65-20.84-14.09-8.7-14.2,12.1-16.79,19.85-6.34,18.97-16.71,39.59-31.67,53.39-7.82,7.21-18.74,15.45-19.74-1.03-.5-8.08,8.27-29.65,11.39-38.32,1.85-5.15,8.43-17.57,7.02-22.08-1.48-4.75-9.58-7.21-13.83-3.99-1.51,1.15-1.79,4.1-4.25,4.1-.75-.01-4.64-4.17-6.81-5.24-20.12-9.88-38.31,9.5-49.11,24.23-13,17.74-17.24,39.13-31.91,54.59-2.14,2.26-5.51,3.92-6.45,4.57-.43.29-.7,1.9-1.81,2.7-2.32,1.66-5.11-.23-5.39.07-.2.22.57,1.98-.64,3.08-2.13,1.96-8.79,4.31-11.12,1.67-1.73-1.98-3.87-20.21-3.22-23.05.18-.8,1.57-.78,1.93-1.44,4.47-8.08,10.46-13.87,15.48-21.32,18.13-26.95,44.32-79.06,44.63-111.4.03-3.47-.16-8.29-1.54-11.5-2.96-6.95-7.48-10.3-15.14-10.99-4.65-.42-11.1,2.36-15.08,4.76-21.75,13.13-33.22,64.35-39.03,87.97-2.61,10.62-5.91,22.1-8,33-4.57,23.91,1,29.12-17.27,49.23-7.4,8.14-17.49,13.41-24,20h0c-13.32,6.08-18.23,3.45-19.99-10.99,7.86.4,16.13-7.47,22.01-12.5,7.1-6.06,14.52-12.93,18.19-21.81,13.55-32.8-11.46-49.26-37.21-26.21-9.99,8.93-19.44,26.01-23.2,38.82-3.99,13.57,1.22,24.77-9.75,36.23-3.21,3.36-7.62,5.74-11.33,8.46-.85.62-.76,3.67-2.73,1.49.5-1.28.95-2.5.89-3.9-.53-13.15,4.36-27.24,6.08-40.15.46-3.44,2.31-13.36,2.01-15.94-.83-7.09-7.93-10.08-14.19-7.22-5.94,2.7-4.88,12.59-6.23,17.77-6.99,26.93-29.3,59.57-53.86,73.13-7.5,4.14-20.72,10.9-23.85-1.54-1.66-6.61,2.71-7.15,7.84-10.46,12.65-8.17,24.04-15.71,32.96-28.54,8.63-12.41,14.67-32.86-1.93-41.85-9.8-5.3-24.49,1.36-32.17,8.24-19.09,17.09-36.02,55.61-28.07,81,3.01,9.61,9.36,13.09,18.52,15.6,1.73.47,2.92-.53,3.55-.46.67.06-.11,1.66,1.92,1.87,18.35,1.95,45.39-22.11,56.95-35.13,1.67-1.88,7.53-13.18,10.6-10.9-4.16,7.09-2.74,24.05-6.56,29.93-1.03,1.58-6.26,4.37-7.94,6.06-12.99,13.16-31.85,37.35-38.52,54.48-4.68,12.02-8.16,24.08-.84,35.87,3.12,5.02,7.67,5.94,13.25,5.53,30.71-2.24,46.03-56.96,51.35-81.64,1.09-5.04,2.42-22.65,4.2-25.8,2.14-3.81,13.22-12.16,17.11-15.88,1.95-1.86,4.77-4.02,6-5.27,1.38-1.41,2.18-5.44,4.64-6.17,4.68-1.38,5.81,4.47,8.01,5.93,4.26,2.81,13.15,4.77,18.3,3.95,7.25.69,15.03-3.7,20.94-7.56,11.86-7.76,21.91-17.77,31.06-28.44,1.71-2.79,1.9-.19,2.45,1.01,2.82,6.23,4.94,11.23,11.27,14.76,8.3,4.64,15.36,3.28,23.6-.95,3.01-1.55,13.21-8.86,15.77-11.25,3.37-3.14,5.28-8.19,9.41-10.57,4.14,9.75,11.97,15.63,22.94,13.93,5.93-.92,19.87-11.34,23.98-15.98,2.6-2.93,4.49-6.97,7.09-9.95l3.28,9.71c2.13,1.45,3.54,5.92,4.49,6.99.8.9,11.92,4.93,13.21,4.84,11.12-.83,27.55-16.16,33.01-25.54,1.06,7.24-4.37,17.46,6.22,19.81,9.64,2.15,8.61-3.63,10.88-8.71,10.39-23.37,25.35-56.3,46.48-71.52,12.77-9.19,8.61,3.89,6.44,12.44-4.39,17.28-23.46,61.89,9.9,61.98,9.69.03,16.75-5.07,22.98-12.1,3.01-3.41,5.09-7.5,8.1-10.9,4.96,21.48,22.39,24.85,40.17,14.66l15.84-16.67c2.99-1.01,2.32,7.6,2.71,9.28,1.95,8.34,13.58,13.03,21.51,11.05,18.88-4.71,49.78-38.21,63.22-52.88,2.1-2.3,5.78-4.95,8.03-7.44,4.25,12.25,12.77,23.85,12.04,37.46-.53,9.77-10.61,23.72-21.31,21.33-8.34-1.87-6.12-16.81-15.46-18.58-14.15-2.69-14.58,15.77-8.11,24.14,10.66,13.8,33.96,12.29,47.55,3.84,24.29-15.08,19.27-43.81,8.47-65.86-2.17-4.44-8.33-12.21-8.11-16.69.49-9.88,8.4-13.32,17.42-11.61,7.28,1.37-1.57,12.55,12.01,9.94,3.82-.73,9.66-9.35,9.46-13.39-.73-15.14-18.65-16.86-30.41-15.55ZM373.82,106.79c3.88-17.94,9.58-38.99,15.95-56.04,4.59-12.29,11.87-23.25,22.75-30.75.61,10.93-2.92,22.83-6.28,33.22-5.78,17.9-15.49,39.04-24.17,55.82-2.89,5.58-6.77,13.16-11.53,16.96.73-6.44,1.91-12.87,3.28-19.21ZM165.7,179.68c2.37-3.68,14.14-18.02,18.84-15.11,9.45,5.84-6.43,28.78-12,33.94-1.74,1.6-15.17,10.28-16.01,9.48-3.06-2.89,6.73-24.53,9.17-28.31ZM200.05,304.02c-1.9,3.45-8.69,17.05-13.52,14.52-3.25-1.7-.65-8.55.28-11.76,3.36-11.62,16.93-36.17,26.21-43.78,1.13-.93,1.62-2.43,3.5-2-3.68,14.93-9.08,29.54-16.47,43.02ZM295.47,145.44c.41-.81,4.05-6.91,4.37-7.19.5-.45,1.92-.06,2.38-.49,2.2-2.07,4.47-7.33,8.77-9.8,7.89-4.51,4.17,11.01,2.83,14.83-4.3,12.25-15,21.04-25.28,28.21-1.41-1.91,5.39-22.44,6.93-25.56ZM340.47,175.14s-.09-.09-.12-.13c.06-.01.11-.01.17-.01-.02.05-.04.1-.05.14ZM470.23,126.2c-3.68,9.51-14.03,23.91-21.06,31.44-2.48,2.66-8.62,8.4-11.75,9.76-7.71,3.35-9.29,1.45-9.95-6.85-.93-11.62,13.35-37.72,21.36-46.26,3.64-3.88,15.48-13.54,20.74-11.86,8.49,2.72,3.07,17.54.66,23.77ZM699.41,97.39c-7.55,17.16-18.97,36.27-34.97,47.02-5.38,3.62-16.57,10.57-17.02-.89-.45-11.67,8.74-29.86,15.49-39.15,5.94-8.18,18.44-18.98,28.57-20.95,9.96-1.94,11.27,6.38,7.93,13.97Z"/>
      <path d="M632.53,465c-.58.25-1.06.38-1.46.39.52-.17,1.01-.3,1.46-.39Z"/>
      <path d="M785.54,222.48c-45.92-14.09-102.8-7.43-138.35,26.64-9.07,8.68-21.03,21.52-27.3,32.22-27.44,46.87-29.55,100.92-.17,146.97,2.02,3.17,13.59,17.08,13.79,18.21.15.81-.01,1.66.02,2.47-8.45-.38-16.22,2.41-24,5.01-56.18,18.77-92.72,69.57-144.14,98.36-109.32,61.24-268.72,46.27-351.38-52.35-12.38-14.78-25.36-40.45-31.48-59.01-22.37-67.77-.93-130.17,16.29-196.21,8.94-34.29,18.85-68.27,28.65-102.35,1.93-6.73,3.29-22.74,8.8-26.2,3.02-1.9,7.02-1.79,9.99-3.01,30.45-12.58,61.51-19.16,91.15-30.83,4.75-1.87,21.56-7.66,20.96-13.64-.21-2.13-2.4-5.93-4.55-6.55-7.36-2.13-25.03,4.25-33.09,6.49-37.16,10.32-74.43,21.5-110.88,35.12-32.77,12.24-76.31,30.67-98.97,57.53-6.37,7.54-17.04,24.44-6.28,32.07,13.12,9.31,13.9-6.96,18.9-14.68,5.16-7.96,25.64-23.48,34.52-28.75,14.88-8.84,31.77-15.15,47.41-22.49l3.09.51c-4.75,12.6-8.15,25.74-11.75,38.74-23.79,86.08-63.69,188.89-35.75,277.26,1.7,5.36,2.92,10.95,5.51,15.99,1.14,6.15,9.45,21.56,12.82,27.67,18.14,32.9,51.12,64.7,84.51,82.49,106.23,56.6,230.01,53.3,329.6-13.73,43.2-29.07,78.68-74.71,131.07-88.43,4.21-1.11,15.74-2.54,20.5-2.99,14.58-1.4,16.65,6.37,27.82,12.16,63.28,32.83,142.4,11.65,181.64-47.71,48.07-72.71,16.36-180.79-68.95-206.98ZM67.7,442.39s.02-.04.03-.07c.01.03.02.07.03.1-.02-.01-.04-.02-.06-.03ZM622.52,467.76c.46.13,1.1.21,1.96.24-.99,0-1.77.24-1.96-.24ZM631.07,465.39c.52-.17,1.01-.3,1.46-.39-.58.25-1.06.38-1.46.39ZM788.51,241.5c-.02.87-12.99,9.18-14.67,9.34-1.08.1-1.72-.53-2.36-1.27-1.65-3.08-4.58-5.49-6.57-7.95-2.15-2.67-4.16-5.5-6.38-8.13,9.95.23,20.41,4.67,29.98,8.01ZM706.53,236c6.01-.2,11.77-4.43,18.05-3.57,3.29.46,11.76,6.54,14.6,8.92,3.97,3.34,10.3,9.35,14.05,12.95,1.57,1.5,2.98,4.81,5.28,6.2-6.17,4.21-10.42,10.16-17.51,4.52-10.89-8.67-21.67-17.58-32.8-26.19-1.12-.87-2.07-1.01-1.67-2.83ZM711,259.03c5.85,4.62,14.88,12.26,19.91,17.58.96,1.01,3.76,1.42,2.13,3.41-.67.82-2.83,1.11-4,1.99-3.06,2.31-5.67,6.67-9.83,6.02l-42.68-39.52c11.01-8.74,25.57,3.49,34.47,10.52ZM664.78,262.25c3.16.81,20.14,14.14,23.45,17.11.4.36.18,1.89.6,2.28,6.74,6.18,14.18,11.58,19.3,19.31.46,1.77-4.01,4.16-5.46,5.69-2.76,2.92-2.78,8.51-8.66,3.37-8.95-7.82-18.56-17.4-27.06-25.38-2.92-2.74-14.75-12.6-14.49-16.06,5.06-3.32,4.73-8.28,12.32-6.32ZM632.28,294.26c.45-1.02,7.26-10.01,7.88-10.2,2.71-.83,6.31,4.57,7.71,6.59l34.99,34.61c2.12,2.57-5.5,12.3-6.93,12.67-1.14.3-16.12-12.37-18.42-14.42-5.72-5.1-11.58-11.6-16.96-17.04-3.79-3.82-10.79-6.51-8.27-12.21ZM623.54,317c2.4-2.08,7.99,6.2,9.43,7.58,9.94,9.53,20.97,17.98,30.04,28.42-1.91,4.06-6.63,15.02-11.94,13.45-3.57-1.05-13.4-12.77-16.89-16.1-2.17-2.07-14.61-11.69-14.99-12.59-2.43-5.74,3.4-14.96,4.35-20.76ZM634.8,398.77c-1.14,3.47.44,8.52-3.77,11.21-8.04-15.2-13.88-31.99-14.51-49.48-.12-.87,1.87-.6,1.99-.49.13.11.25,1.69.99,2.47,7.06,7.38,14.21,14.4,21.87,21.22.7,2.95-5.36,11.42-6.57,15.07ZM653.95,438.97c-2.85.89-11.34-9.01-11.38-12.34-.06-4.47,2.76-4.4,3.76-6.29.89-1.69.71-3.93,1.46-5.58,28.36-61.75,86.21-124.11,145.82-157.18,9.68-5.36,13.08-8.49,21.9.92-20.86,14.48-41.56,29.09-60.57,45.92-33.69,29.83-75.21,79.14-94.59,119.9-1.16,2.45-5.21,14.28-6.4,14.65ZM667.21,445.18c3.62-14.61,18.77-31.97,27.64-44.41,12.19-17.11,24.45-34.8,38.68-51.23,16.65-19.22,35.69-39.19,56.62-55.37,6.07-4.69,32.51-23.84,38.88-23.21,1.35.13,8.07,6.9,5.18,8.74-11.9,10.57-24.56,20.39-36.21,31.27-22.28,20.81-45.98,45.67-65.49,68.8-20.62,24.47-38.89,50.46-54.94,77.8-7.13-2.52-12.48-3.79-10.36-12.39ZM714.52,471.99c-1.26,1.23-17.86-3.68-20.34-5-2.81-1.48.92-2.03,1.35-2.69,2.02-3.07,3.18-7.49,6.98-9.3.03,3.46,14.21,14.84,12.01,16.99ZM750.55,473.52c-3.11,1.75-10.4.57-13.37-1.68-3.54-2.69-12.61-13.67-15.67-17.61-1.35-1.73-1.72-4.11-2.99-5.77-1.65-2.17-6.94-5-6.93-8.96.01-3.7,8.61-11.6,10.44-15.48,4.52,7.25,9.41,14.33,13.92,21.58,5.12,8.25,10.16,16.19,14.34,25.14.48,1.03,2,1.82.26,2.78ZM780.36,465.85c-.29.34-7.55,3.05-8.36,3.05-5.06-.08-9.11-11.94-11.67-16.21-7.14-11.88-18.4-26.93-23.97-39.02-1.09-2.37-2.05-4.01-1.32-6.62.16-.58,7.19-8.4,7.96-9.08.67-.59,1.68-1.59,2.51-.97.14.11.35,2.32,1.14,3.35,10.3,13.35,28.97,43.83,33.4,59.61.38,1.36,1.06,5.03.31,5.89ZM808.2,451.69c-1.29,1.38-9.25,6.11-10.67,5.3.33-3.79-2.59-9.42-4.29-13.2-8.99-19.93-21.07-36.45-30.84-54.95-1.18-2.24-4.75-5.42-3.74-9.12.17-.62,7.76-9.55,8.37-9.72,1.72-.49,7.44,9.96,9.91,11.08,9.25,14.2,19.42,28.02,26.48,43.52,1.91,4.2,7.28,17.22,7.66,21.33.07.75-2.29,5.14-2.88,5.76ZM830.34,432.32c-1.72,2.36-3.72,5.83-5.16,1.75-10.1-28.7-26.26-51.94-43.75-76.54-3.63-3.82,9.42-14.02,11.08-12.53,2.09,6.88,9.04,12.14,13.43,18.09,8.75,11.86,23.17,36.25,26.74,50.25,2.03,7.95,2.71,12.07-2.34,18.98ZM849.01,400.99l-9.64-19.33c-10.5-17.61-22.93-33.62-34.68-50.34-.83-3.64,1.21-1.61,3.38-3.24,2.18-1.65,2.66-7.57,7.93-7.16,2.31.18,4.37,5.24,5.99,7.14.93,1.09,2.62,1.48,3.23,2.24,7.77,9.61,22.95,32.65,26.63,43.88.47,1.43,2.57,11.07,2.48,12.08-.31,3.15-4.16,11.16-5.32,14.73ZM845.52,328.5c-5.6-3.84-8.58-10.21-12.3-14.14-2.08-2.2-6.79-3.18-5.21-7.3.58-1.52,13.19-14.66,14.19-14.93,1.47-.41,1.85-.24,2.79.91.74.92,4.58,9.05,5.27,10.73,2.34,5.73,5.37,15.18,6.8,21.19,1.77,7.45,3.26,16.52,2.46,24.03l-14-20.49Z"/>
      <path d="M67.76,442.42s-.04-.02-.06-.03c0-.02.02-.04.03-.07.01.03.02.07.03.1Z"/>
      <path d="M547.1,392.58c-7.93,10.41-19.08,24.22-33.33,26.16-7.55,1.03-16.23-1.11-21.25-7.23-10.77-13.12,6.09-48.73,4-51.51-4.33,3.16-11.94,5.88-17.26,4.78-1.62-.33-4.78-2.72-5.25-2.69-2.27.17-16.8,36.17-19.52,41.11-.57,1.04-1.95,1.22-2.34,1.88-6.8,11.59-16.77,32-33.15,28.71-13.33-2.68-10.6-26.83-12.97-36.79-10.27,15.54-19.85,35.94-36.84,45.16-15.12,8.21-26.78-.07-27.09-16.67s10.62-62.05,18.61-75.81c3.9-6.71,7.73-9.05,14.74-4.11,4.63,3.26,5.43,6.32,3.83,11.69-4.52,15.19-10.07,30.92-13.29,46.7-1.4,6.85-3.7,14.14-1.45,21.03.38.28,5.48-3.24,6.38-4.1,10.12-9.67,30.56-41.59,34.12-54.88,1.85-6.9.11-16.85,1.69-22.31,2.14-7.41,17.77-9.86,19.74.84-.62,20.81-3.03,43.17.19,63.82.18,1.15.3,4.66,1.85,4.62,12.07-19.4,24.43-41.79,30.52-63.99,2.03-7.41,2.04-27.26,14.51-23.58,10.62,3.13,4.02,16.43,6.14,22.92,1.85,5.67,13.89-.18,16.85-2.83,7.56-6.78,8.14-15.4,12.59-22.41,5.5-8.66,16.86-3.35,18.92,5.01-4.23,16.23-10.75,32.47-14.02,48.89-.73,3.63-4.98,21.87.94,22,6.64.14,22.46-17.29,27.6-22.46,3.48-3.5,5.5-10.34,11.53-4.58,6.6,6.32-2.9,15.27-6.98,20.63Z"/>
      <path d="M366.27,263.25c2.43,2.81,0,7.81-1.27,10.73-3.66,8.45-9.92,16.79-14.03,24.97-25.1,50-43.15,106.18-64.98,156.06-5.79,13.23-16.16,42.08-29.52,48.43-5.22,2.48-12.18,2.99-16.52-1.39-7.97-8.04-5.39-25.08-5.42-35.51-.07-31.57,1.45-63.47,1.04-95.09-.09-7.25-1.61-17.34-10.97-11.87-2.46,1.44-2.99,3.88-4.47,5.09-7.63,6.21-12.83,12.69-19.71,18.72-9.75,8.54-19.94,4.28-14.09-9.09,3.48-7.95,28.6-30.31,36.45-34.6,5.85-3.19,22.03-7.69,27.49-2.47.53.51,5.67,9.51,5.96,10.53.6,2.09,1.16,7.27,1.32,9.68,2.23,31.91-3.83,68.64-2.03,101.04l1.98,7.5c16.7-27.39,27.3-57.84,38.83-87.68,15.83-29.49,24.6-65.56,40.37-94.63,3.03-5.58,8.26-13.99,13.48-17.52,3.29-2.23,13.01-6.47,16.09-2.91Z"/>
      <path d="M340.52,175s-.04.1-.05.14c-.05-.05-.09-.09-.12-.13.06-.01.11-.01.17-.01Z"/>
      <path d="M387.17,320.65c-16.11,17.19-37.98-7.91-17.15-22.65,14.72-10.41,29.95,8.99,17.15,22.65Z"/>
      <path d="M513.86,296.66c-16.45-16,15.75-39.41,24.08-19.58,6.19,14.74-14.28,29.12-24.08,19.58Z"/>
      <path d="M244.29,98.18c5.77-.69,14.04,5.52,14.23,11.45.11,3.51-6.73,11.7-10.56,12.35-18.35,3.11-16.29-22.28-3.67-23.79Z"/>
      <path d="M340.52,175s-.04.1-.05.14c-.05-.05-.09-.09-.12-.13.06-.01.11-.01.17-.01Z"/>
    </g>
  </g>
</svg>