<?xml version="1.0" encoding="UTF-8"?>
<svg id="Capa_2" xmlns="http://www.w3.org/2000/svg" version="1.1" viewBox="0 0 130.6 128.3">
  <!-- Generator: Adobe Illustrator 29.5.1, SVG Export Plug-In . SVG Version: 2.1.0 Build 141)  -->
  <defs>
    <style>
      .st0 {
        fill: #ffeae1;
      }
    </style>
  </defs>
  <g id="Logo">
    <g id="logo">
      <g>
        <path class="st0" d="M88.1,83.5s0,0,.2,0c0,0,0,0-.2,0Z"/>
        <path class="st0" d="M58.3,53.7s0,0,0,0c0,0,0,0,0,0h0Z"/>
        <path class="st0" d="M105.7,42.1c-.5,0-1.1.3-1.5.6-.1,0-1.2,1.1-1.2,1.2-.2.3-.1.6-.3.9-.6,1.4-4.4,4.9-5.7,5.9-.5.4-1.4.9-1.4-.2s.8-2.8,1.3-3.9c.3-.5,1.2-2.1,1.3-2.5.1-1-1.4-1.4-1.8-.6-.7-1.3-2.5-1.2-3.7-.7-3.7,1.7-4,5.9-6.9,8.2-1,.7-1.1,0-1-.8.1-1.5,1.1-3.1,1.2-4.4.2-1.4-.9-2.5-2.3-2.1-.5.1-1.8,1-2.2,1.3-.1.1-1.1,1.6-1.3,1.4.3-.7.4-1.7-.3-2.1-1.4-.9-1.5,1.2-1.7,2-.6,1.9-1.7,4.1-3.2,5.5-.8.7-1.9,1.6-2-.1,0-.8.8-3,1.2-3.9.2-.5.9-1.8.7-2.3-.2-.5-1-.7-1.4-.4-.2.1-.2.4-.4.4s-.5-.4-.7-.5c-2.1-1-3.9,1-5,2.5-1.3,1.8-1.8,4-3.3,5.6-.2.2-.6.4-.7.5,0,0,0,.2-.2.3-.2.2-.5,0-.6,0,0,0,0,.2,0,.3-.2.2-.9.4-1.1.2-.2-.2-.4-2.1-.3-2.4,0,0,.2,0,.2-.1.5-.8,1.1-1.4,1.6-2.2,1.9-2.8,4.5-8.1,4.6-11.4,0-.4,0-.8-.2-1.2-.3-.7-.8-1.1-1.6-1.1-.5,0-1.1.2-1.5.5-2.2,1.3-3.4,6.6-4,9-.3,1.1-.6,2.3-.8,3.4-.5,2.5.1,3-1.8,5-.8.8-1.8,1.4-2.5,2.1h0c-1.4.6-1.9.4-2.1-1.1.8,0,1.7-.8,2.3-1.3.7-.6,1.5-1.3,1.9-2.2,1.4-3.4-1.2-5.1-3.8-2.7-1,.9-2,2.7-2.4,4-.4,1.4.1,2.5-1,3.7-.3.3-.8.6-1.2.9,0,0,0,.4-.3.2,0-.1,0-.3,0-.4,0-1.3.4-2.8.6-4.1,0-.4.2-1.4.2-1.6,0-.7-.8-1-1.5-.7-.6.3-.5,1.3-.6,1.8-.7,2.8-3,6.1-5.5,7.5-.8.4-2.1,1.1-2.4-.2-.2-.7.3-.7.8-1.1,1.3-.8,2.5-1.6,3.4-2.9.9-1.3,1.5-3.4-.2-4.3-1-.5-2.5.1-3.3.8-2,1.8-3.7,5.7-2.9,8.3.3,1,1,1.3,1.9,1.6.2,0,.3,0,.4,0,0,0,0,.2.2.2,1.9.2,4.7-2.3,5.8-3.6.2-.2.8-1.4,1.1-1.1-.4.7-.3,2.5-.7,3.1-.1.2-.6.4-.8.6-1.3,1.3-3.3,3.8-3.9,5.6-.5,1.2-.8,2.5,0,3.7.3.5.8.6,1.4.6,3.2-.2,4.7-5.8,5.3-8.4.1-.5.2-2.3.4-2.6.2-.4,1.4-1.2,1.8-1.6.2-.2.5-.4.6-.5.1-.1.2-.6.5-.6.5-.1.6.5.8.6.4.3,1.3.5,1.9.4.7,0,1.5-.4,2.1-.8,1.2-.8,2.2-1.8,3.2-2.9.2-.3.2,0,.3.1.3.6.5,1.2,1.2,1.5.8.5,1.6.3,2.4,0,.3-.2,1.4-.9,1.6-1.2.3-.3.5-.8,1-1.1.4,1,1.2,1.6,2.4,1.4.6,0,2-1.2,2.5-1.6.3-.3.5-.7.7-1l.3,1c.2.2.4.6.5.7,0,0,1.2.5,1.4.5,1.1,0,2.8-1.7,3.4-2.6.1.7-.4,1.8.6,2,1,.2.9-.4,1.1-.9,1.1-2.4,2.6-5.8,4.8-7.3,1.3-.9.9.4.7,1.3-.5,1.8-2.4,6.3,1,6.4,1,0,1.7-.5,2.4-1.2.3-.3.5-.8.8-1.1.5,2.2,2.3,2.5,4.1,1.5l1.6-1.7c.3-.1.2.8.3,1,.2.9,1.4,1.3,2.2,1.1,1.9-.5,5.1-3.9,6.5-5.4.2-.2.6-.5.8-.8.4,1.3,1.3,2.4,1.2,3.8,0,1-1.1,2.4-2.2,2.2-.9-.2-.6-1.7-1.6-1.9-1.5-.3-1.5,1.6-.8,2.5,1.1,1.4,3.5,1.3,4.9.4,2.5-1.5,2-4.5.9-6.8-.2-.5-.9-1.3-.8-1.7,0-1,.9-1.4,1.8-1.2.7.1-.2,1.3,1.2,1,.4,0,1-1,1-1.4,0-1.6-1.9-1.7-3.1-1.6h0ZM61.7,46.7c.4-1.8,1-4,1.6-5.7.5-1.3,1.2-2.4,2.3-3.2,0,1.1-.3,2.3-.6,3.4-.6,1.8-1.6,4-2.5,5.7-.3.6-.7,1.3-1.2,1.7,0-.7.2-1.3.3-2ZM40.3,54.2c.2-.4,1.5-1.9,1.9-1.5,1,.6-.7,2.9-1.2,3.5-.2.2-1.6,1.1-1.6,1-.3-.3.7-2.5.9-2.9h0ZM43.9,66.9c-.2.4-.9,1.7-1.4,1.5-.3-.2,0-.9,0-1.2.3-1.2,1.7-3.7,2.7-4.5.1,0,.2-.2.4-.2-.4,1.5-.9,3-1.7,4.4h0ZM53.7,50.7c0,0,.4-.7.4-.7,0,0,.2,0,.2,0,.2-.2.5-.8.9-1,.8-.5.4,1.1.3,1.5-.4,1.3-1.5,2.2-2.6,2.9-.1-.2.6-2.3.7-2.6h0ZM58.3,53.7s0,0,0,0h0s0,0,0,0h0ZM71.6,48.7c-.4,1-1.4,2.5-2.2,3.2-.3.3-.9.9-1.2,1-.8.3-1,.2-1-.7,0-1.2,1.4-3.9,2.2-4.7.4-.4,1.6-1.4,2.1-1.2.9.3.3,1.8,0,2.4h0ZM95.1,45.7c-.8,1.8-1.9,3.7-3.6,4.8-.5.4-1.7,1.1-1.7,0,0-1.2.9-3.1,1.6-4,.6-.8,1.9-1.9,2.9-2.1,1-.2,1.2.7.8,1.4h0Z"/>
        <path class="st0" d="M88.2,83.4c0,0-.1,0-.2,0,0,0,.1,0,.2,0Z"/>
        <path class="st0" d="M103.9,58.6c-4.7-1.4-10.5-.8-14.2,2.7-.9.9-2.2,2.2-2.8,3.3-2.8,4.8-3,10.3,0,15.1.2.3,1.4,1.8,1.4,1.9,0,0,0,.2,0,.3-.9,0-1.7.2-2.5.5-5.8,1.9-9.5,7.1-14.8,10.1-11.2,6.3-27.6,4.7-36-5.4-1.3-1.5-2.6-4.1-3.2-6.1-2.3-7,0-13.4,1.7-20.1.9-3.5,1.9-7,2.9-10.5.2-.7.3-2.3.9-2.7.3-.2.7-.2,1-.3,3.1-1.3,6.3-2,9.3-3.2.5-.2,2.2-.8,2.2-1.4,0-.2-.2-.6-.5-.7-.8-.2-2.6.4-3.4.7-3.8,1.1-7.6,2.2-11.4,3.6-3.4,1.3-7.8,3.1-10.1,5.9-.7.8-1.7,2.5-.6,3.3,1.3,1,1.4-.7,1.9-1.5.5-.8,2.6-2.4,3.5-2.9,1.5-.9,3.3-1.6,4.9-2.3h.3c-.5,1.3-.8,2.7-1.2,4-2.4,8.8-6.5,19.4-3.7,28.4.2.5.3,1.1.6,1.6.1.6,1,2.2,1.3,2.8,1.9,3.4,5.2,6.6,8.7,8.5,10.9,5.8,23.6,5.5,33.8-1.4,4.4-3,8.1-7.7,13.4-9.1.4-.1,1.6-.3,2.1-.3,1.5-.1,1.7.7,2.9,1.2,6.5,3.4,14.6,1.2,18.6-4.9,4.9-7.5,1.7-18.5-7.1-21.2h0ZM30.3,81.1h0s0,0,0,0h0,0ZM87.2,83.7s.1,0,.2,0c-.1,0-.2,0-.2,0ZM88.1,83.5c0,0,.1,0,.2,0,0,0-.1,0-.2,0ZM104.2,60.5c0,0-1.3.9-1.5,1-.1,0-.2,0-.2-.1-.2-.3-.5-.6-.7-.8-.2-.3-.4-.6-.7-.8,1,0,2.1.5,3.1.8h0ZM95.8,60c.6,0,1.2-.5,1.9-.4.3,0,1.2.7,1.5.9.4.3,1.1,1,1.4,1.3.2.2.3.5.5.6-.6.4-1.1,1-1.8.5-1.1-.9-2.2-1.8-3.4-2.7-.1,0-.2-.1-.2-.3h0ZM96.3,62.3c.6.5,1.5,1.3,2,1.8,0,.1.4.1.2.3,0,0-.3.1-.4.2-.3.2-.6.7-1,.6l-4.4-4.1c1.1-.9,2.6.4,3.5,1.1h0ZM91.5,62.7c.3,0,2.1,1.5,2.4,1.8,0,0,0,.2,0,.2.7.6,1.5,1.2,2,2,0,.2-.4.4-.6.6-.3.3-.3.9-.9.3-.9-.8-1.9-1.8-2.8-2.6-.3-.3-1.5-1.3-1.5-1.6.5-.3.5-.8,1.3-.6h0ZM88.2,65.9c0-.1.7-1,.8-1,.3,0,.6.5.8.7l3.6,3.6c.2.3-.6,1.3-.7,1.3-.1,0-1.7-1.3-1.9-1.5-.6-.5-1.2-1.2-1.7-1.7-.4-.4-1.1-.7-.8-1.3ZM87.3,68.3c.2-.2.8.6,1,.8,1,1,2.2,1.8,3.1,2.9-.2.4-.7,1.5-1.2,1.4-.4-.1-1.4-1.3-1.7-1.7-.2-.2-1.5-1.2-1.5-1.3-.2-.6.3-1.5.4-2.1h0ZM88.4,76.7c-.1.4,0,.9-.4,1.2-.8-1.6-1.4-3.3-1.5-5.1,0,0,.2,0,.2,0,0,0,0,.2.1.3.7.8,1.5,1.5,2.2,2.2,0,.3-.5,1.2-.7,1.5h0ZM90.4,80.8c-.3,0-1.2-.9-1.2-1.3,0-.5.3-.5.4-.6,0-.2,0-.4.2-.6,2.9-6.3,8.8-12.7,15-16.1,1-.5,1.3-.9,2.2,0-2.1,1.5-4.3,3-6.2,4.7-3.5,3.1-7.7,8.1-9.7,12.3-.1.3-.5,1.5-.7,1.5h0ZM91.8,81.4c.4-1.5,1.9-3.3,2.8-4.6,1.2-1.8,2.5-3.6,4-5.3,1.7-2,3.7-4,5.8-5.7.6-.5,3.3-2.4,4-2.4.1,0,.8.7.5.9-1.2,1.1-2.5,2.1-3.7,3.2-2.3,2.1-4.7,4.7-6.7,7.1-2.1,2.5-4,5.2-5.6,8-.7-.3-1.3-.4-1.1-1.3h0ZM96.6,84.2c-.1.1-1.8-.4-2.1-.5-.3-.2,0-.2.1-.3.2-.3.3-.8.7-1,0,.4,1.5,1.5,1.2,1.7h0ZM100.3,84.3c-.3.2-1.1,0-1.4-.2-.4-.3-1.3-1.4-1.6-1.8-.1-.2-.2-.4-.3-.6-.2-.2-.7-.5-.7-.9,0-.4.9-1.2,1.1-1.6.5.7,1,1.5,1.4,2.2.5.8,1,1.7,1.5,2.6,0,.1.2.2,0,.3h0ZM103.4,83.5s-.8.3-.9.3c-.5,0-.9-1.2-1.2-1.7-.7-1.2-1.9-2.8-2.5-4-.1-.2-.2-.4-.1-.7,0,0,.7-.9.8-.9,0,0,.2-.2.3,0,0,0,0,.2.1.3,1.1,1.4,3,4.5,3.4,6.1,0,.1.1.5,0,.6h0ZM106.2,82.1c-.1.1-.9.6-1.1.5,0-.4-.3-1-.4-1.4-.9-2-2.2-3.7-3.2-5.6-.1-.2-.5-.6-.4-.9,0,0,.8-1,.9-1,.2,0,.8,1,1,1.1.9,1.5,2,2.9,2.7,4.5.2.4.7,1.8.8,2.2,0,0-.2.5-.3.6h0ZM108.5,80.1c-.2.2-.4.6-.5.2-1-2.9-2.7-5.3-4.5-7.8-.4-.4,1-1.4,1.1-1.3.2.7.9,1.2,1.4,1.9.9,1.2,2.4,3.7,2.7,5.2.2.8.3,1.2-.2,1.9h0ZM110.4,76.9l-1-2c-1.1-1.8-2.4-3.4-3.6-5.2,0-.4.1-.2.3-.3.2-.2.3-.8.8-.7.2,0,.4.5.6.7,0,.1.3.2.3.2.8,1,2.4,3.3,2.7,4.5,0,.1.3,1.1.3,1.2,0,.3-.4,1.1-.5,1.5h0ZM110.1,69.4c-.6-.4-.9-1-1.3-1.5-.2-.2-.7-.3-.5-.7,0-.2,1.4-1.5,1.5-1.5.2,0,.2,0,.3,0,0,0,.5.9.5,1.1.2.6.5,1.6.7,2.2.2.8.3,1.7.3,2.5l-1.4-2.1h0Z"/>
        <path class="st0" d="M30.3,81.1h0s0,0,0,0h0Z"/>
        <path class="st0" d="M79.5,76c-.8,1.1-2,2.5-3.4,2.7-.8.1-1.7-.1-2.2-.7-1.1-1.3.6-5,.4-5.3-.4.3-1.2.6-1.8.5-.2,0-.5-.3-.5-.3-.2,0-1.7,3.7-2,4.2,0,.1-.2.1-.2.2-.7,1.2-1.7,3.3-3.4,2.9-1.4-.3-1.1-2.8-1.3-3.8-1.1,1.6-2,3.7-3.8,4.6-1.5.8-2.7,0-2.8-1.7s1.1-6.4,1.9-7.8c.4-.7.8-.9,1.5-.4.5.3.6.6.4,1.2-.5,1.6-1,3.2-1.4,4.8-.1.7-.4,1.5-.2,2.2,0,0,.6-.3.7-.4,1-1,3.1-4.3,3.5-5.6.2-.7,0-1.7.2-2.3.2-.8,1.8-1,2,0,0,2.1-.3,4.4,0,6.5,0,.1,0,.5.2.5,1.2-2,2.5-4.3,3.1-6.6.2-.8.2-2.8,1.5-2.4,1.1.3.4,1.7.6,2.4.2.6,1.4,0,1.7-.3.8-.7.8-1.6,1.3-2.3.6-.9,1.7-.3,1.9.5-.4,1.7-1.1,3.3-1.4,5,0,.4-.5,2.2,0,2.3.7,0,2.3-1.8,2.8-2.3.4-.4.6-1.1,1.2-.5.7.6-.3,1.6-.7,2.1h0Z"/>
        <path class="st0" d="M60.9,62.8c.2.3,0,.8-.1,1.1-.4.9-1,1.7-1.4,2.6-2.6,5.1-4.4,10.9-6.7,16-.6,1.4-1.7,4.3-3,5-.5.3-1.2.3-1.7-.1-.8-.8-.6-2.6-.6-3.6,0-3.2.2-6.5.1-9.8,0-.7-.2-1.8-1.1-1.2-.3.1-.3.4-.5.5-.8.6-1.3,1.3-2,1.9-1,.9-2,.4-1.4-.9.4-.8,2.9-3.1,3.7-3.6.6-.3,2.3-.8,2.8-.3,0,0,.6,1,.6,1.1,0,.2.1.7.1,1,.2,3.3-.4,7-.2,10.4l.2.8c1.7-2.8,2.8-5.9,4-9,1.6-3,2.5-6.7,4.1-9.7.3-.6.8-1.4,1.4-1.8.3-.2,1.3-.7,1.6-.3h0Z"/>
        <path class="st0" d="M58.3,53.7s0,0,0,0c0,0,0,0,0,0h0Z"/>
        <path class="st0" d="M63.1,68.6c-1.7,1.8-3.9-.8-1.8-2.3,1.5-1.1,3.1.9,1.8,2.3Z"/>
        <path class="st0" d="M76,66.2c-1.7-1.6,1.6-4,2.5-2,.6,1.5-1.5,3-2.5,2Z"/>
        <path class="st0" d="M48.4,45.8c.6,0,1.4.6,1.5,1.2,0,.4-.7,1.2-1.1,1.3-1.9.3-1.7-2.3-.4-2.4h0Z"/>
        <path class="st0" d="M58.3,53.7s0,0,0,0c0,0,0,0,0,0h0Z"/>
      </g>
    </g>
  </g>
  <path class="st0" d="M66.3,128.3c-2.7,0-5.3-.2-8-.5-.8-.1-1.4-.9-1.3-1.7.1-.8.9-1.4,1.7-1.3,2.5.3,5.1.5,7.6.5h0c1.4,0,2.7,0,4.1-.1.8,0,1.5.6,1.6,1.4,0,.8-.6,1.5-1.4,1.6-1.4,0-2.9.1-4.3.1h0ZM82.3,126.3c-.7,0-1.3-.4-1.5-1.1-.2-.8.3-1.6,1.1-1.8,3.8-1,7.5-2.4,11-4,.7-.4,1.6,0,2,.7.4.7,0,1.6-.7,2-3.7,1.8-7.6,3.2-11.5,4.2-.1,0-.3,0-.4,0ZM46.8,125.3c-.2,0-.3,0-.5,0-3.9-1.3-7.7-2.9-11.2-4.9-.7-.4-1-1.3-.6-2,.4-.7,1.3-1,2-.6,3.4,1.9,7,3.5,10.7,4.7.8.3,1.2,1.1,1,1.9-.2.6-.8,1-1.4,1ZM103.8,115.9c-.5,0-.9-.2-1.2-.6-.5-.7-.4-1.6.3-2.1,3.1-2.3,6-5,8.7-7.9.6-.6,1.5-.7,2.1,0,.6.6.7,1.5,0,2.1-2.8,3-5.8,5.8-9.1,8.2-.3.2-.6.3-.9.3ZM26,113.7c-.3,0-.7-.1-1-.4-3.1-2.6-6-5.6-8.6-8.7-.5-.6-.4-1.6.2-2.1.6-.5,1.6-.4,2.1.2,2.5,3,5.2,5.8,8.2,8.3.6.5.7,1.5.2,2.1-.3.4-.7.5-1.1.5ZM119.9,98.3c-.3,0-.5,0-.8-.2-.7-.4-.9-1.4-.5-2.1,2-3.3,3.8-6.9,5.1-10.5.3-.8,1.2-1.2,1.9-.9.8.3,1.2,1.2.9,1.9-1.4,3.8-3.2,7.5-5.4,11-.3.5-.8.7-1.3.7ZM11,95.1c-.5,0-1.1-.3-1.3-.8-1.9-3.6-3.5-7.4-4.7-11.3-.2-.8.2-1.6,1-1.9.8-.2,1.6.2,1.9,1,1.1,3.7,2.7,7.3,4.5,10.8.4.7.1,1.6-.6,2-.2.1-.5.2-.7.2ZM128.2,76c0,0-.2,0-.2,0-.8-.1-1.4-.9-1.2-1.7.6-3.3.8-6.7.8-10.1s-.4-7.8-1.1-11.6c-.2-.8.4-1.6,1.2-1.8.8-.2,1.6.4,1.8,1.2.8,4,1.2,8.1,1.2,12.2s-.3,7.1-.9,10.6c-.1.7-.8,1.3-1.5,1.3ZM3.9,72.4c-.8,0-1.4-.6-1.5-1.3-.2-2.3-.4-4.6-.4-6.9,0-1.8,0-3.6.2-5.3,0-.8.8-1.4,1.6-1.4s1.4.8,1.4,1.6c-.1,1.7-.2,3.4-.2,5.1,0,2.2.1,4.4.4,6.6,0,.8-.5,1.6-1.3,1.7,0,0-.1,0-.2,0ZM5.9,48.6c-.1,0-.3,0-.4,0-.8-.2-1.3-1.1-1-1.8,1.1-3.9,2.6-7.8,4.4-11.4.4-.7,1.3-1,2-.7.7.4,1,1.3.7,2-1.8,3.5-3.2,7.2-4.2,10.9-.2.7-.8,1.1-1.4,1.1ZM124.6,42.2c-.6,0-1.2-.4-1.4-.9-1.5-3.6-3.3-7.1-5.4-10.4-.4-.7-.3-1.6.4-2.1.7-.4,1.6-.3,2.1.4,2.2,3.4,4.1,7.1,5.6,10.9.3.8,0,1.6-.8,2-.2,0-.4.1-.6.1ZM16.6,27.3c-.3,0-.6-.1-.9-.3-.7-.5-.8-1.4-.3-2.1,2.5-3.2,5.3-6.2,8.4-9,.6-.5,1.6-.5,2.1.1.5.6.5,1.6-.1,2.1-2.9,2.6-5.6,5.5-8,8.5-.3.4-.7.6-1.2.6ZM111.6,22.1c-.4,0-.8-.2-1.1-.5-2.7-2.8-5.7-5.4-8.9-7.6-.7-.5-.8-1.4-.4-2.1.5-.7,1.4-.8,2.1-.4,3.3,2.4,6.5,5.1,9.3,8,.6.6.6,1.5,0,2.1-.3.3-.7.4-1,.4ZM34.5,11.5c-.5,0-1-.3-1.3-.7-.4-.7-.2-1.6.5-2.1,3.5-2.1,7.3-3.8,11.1-5.2.8-.3,1.6.1,1.9.9.3.8-.1,1.6-.9,1.9-3.7,1.3-7.2,3-10.6,4.9-.2.1-.5.2-.8.2ZM92.1,8.4c-.2,0-.4,0-.6-.1-3.6-1.6-7.3-2.9-11.1-3.8-.8-.2-1.3-1-1.1-1.8.2-.8,1-1.3,1.8-1.1,4,.9,7.9,2.3,11.6,4,.8.3,1.1,1.2.8,2-.3.6-.8.9-1.4.9ZM57,3.5c-.7,0-1.4-.5-1.5-1.3-.1-.8.4-1.6,1.3-1.7,4-.6,8.2-.8,12.2-.7.8,0,1.5.7,1.4,1.6,0,.8-.7,1.5-1.6,1.4-3.9-.2-7.8,0-11.7.6,0,0-.1,0-.2,0Z"/>
</svg>